<svg width="79" height="55" viewBox="0 0 79 55" fill="none" xmlns="http://www.w3.org/2000/svg">
<path fill-rule="evenodd" clip-rule="evenodd" d="M50.1551 0.12584C50.0819 0.166166 49.6432 0.246533 49.1803 0.304305C48.7173 0.362078 47.6707 0.512229 46.8546 0.637784C45.2375 0.887178 44.4606 0.992427 43.1104 1.14572C41.9602 1.27643 41.9825 1.24211 42.1851 2.556C42.2781 3.16004 42.4062 4.03549 42.4695 4.50168C42.5327 4.96757 42.6274 5.43176 42.6798 5.533C42.7321 5.63396 42.7748 5.89994 42.7748 6.12359C42.7748 6.51542 42.9113 7.56705 43.2503 9.78871C43.3384 10.3662 43.4105 10.9979 43.4105 11.1921C43.4105 11.3866 43.4583 11.5456 43.5167 11.5456C43.5751 11.5456 43.6237 11.7484 43.6249 11.9958C43.6283 12.7222 43.8037 13.7333 43.9819 14.0547C44.0729 14.2186 44.1774 14.4345 44.2143 14.5346C44.3116 14.7986 44.5402 14.8384 45.3719 14.7368C45.788 14.6859 46.1285 14.6865 46.1482 14.7377C46.1676 14.7883 46.3822 14.8232 46.6252 14.8155L47.0667 14.8015L46.6958 14.7317C46.2317 14.6442 46.4532 14.5558 47.3845 14.4566C47.7345 14.4194 48.4258 14.3221 48.9213 14.2406C50.8879 13.9172 52.8558 13.66 52.9451 13.7152C52.9972 13.7473 53.0696 13.7253 53.1062 13.666C53.1428 13.6068 53.281 13.5582 53.4138 13.5582C53.752 13.5582 53.7843 13.495 53.6719 13.05C53.6175 12.8344 53.5159 12.2529 53.4461 11.7576C53.3342 10.9642 53.2939 10.8584 53.1071 10.8672C52.8988 10.877 49.7568 11.2985 49.2392 11.386C47.4592 11.6872 47.0498 11.7533 46.9511 11.7553C46.8249 11.7578 46.3605 9.06627 46.4478 8.8389C46.4976 8.70934 46.8498 8.6347 48.7093 8.36099C50.9562 8.0298 51.3728 7.98747 51.4318 8.08271C51.4658 8.1382 51.5374 8.10559 51.5906 8.01064C51.6435 7.91597 51.7563 7.83818 51.8407 7.83818C51.9254 7.83818 51.9943 7.7907 51.9943 7.73236C51.9943 7.67401 51.9268 7.62654 51.8438 7.62654C51.6687 7.62654 51.606 7.35855 51.5093 6.19653C51.4206 5.13117 51.5013 5.2041 50.5957 5.36826C50.1703 5.4452 49.3929 5.55845 48.8684 5.61966C48.3436 5.68115 47.5207 5.8027 47.0392 5.88993C45.9614 6.08556 46.0171 6.12445 45.8583 5.06253C45.6323 3.54957 45.632 3.55158 46.0601 3.52612C46.2641 3.51382 46.5977 3.4755 46.8017 3.44089C48.6014 3.1363 50.8261 2.82141 51.2527 2.81083C51.5405 2.80339 51.6701 2.64409 51.6255 2.35237C51.6015 2.1945 51.5002 1.60047 51.4006 1.03275L51.2195 0L50.754 0.0263108C50.4979 0.040897 50.2286 0.0855132 50.1551 0.12584ZM39.4809 1.7346C39.4566 1.75662 39.1745 1.80153 38.854 1.83471C38.5332 1.86788 37.9847 1.94482 37.6351 2.00602C37.2855 2.06694 36.9756 2.11727 36.9464 2.11785C36.9172 2.11842 36.8792 3.30962 36.8617 4.76537C36.8345 7.01592 36.8523 7.40345 36.9802 7.35426C37.185 7.2759 37.9759 7.72035 39.0477 8.51629C39.739 9.02966 39.7539 9.01279 39.868 7.58793C39.9393 6.70103 39.9664 6.58778 40.0248 6.93784L40.0955 7.3617L40.1104 6.92011C40.1187 6.67758 40.0778 6.46308 40.0191 6.44335C39.949 6.42018 39.9464 6.12102 40.0117 5.56074C40.066 5.09485 40.1421 4.03406 40.1808 3.20408L40.2511 1.69456H39.8881C39.6883 1.69456 39.5052 1.71258 39.4809 1.7346ZM24.8656 3.87533C23.9417 4.04407 23.1116 4.14875 22.7726 4.1396C22.5946 4.13474 22.5337 4.19365 22.5325 4.3704C22.532 4.50082 22.5071 4.72676 22.4776 4.87233C22.4364 5.07511 22.4441 5.09084 22.5114 4.93926C22.5978 4.74335 23.7423 7.45379 23.8805 8.18253C23.9108 8.34269 23.9729 8.47396 24.0184 8.47396C24.0636 8.47396 24.1305 8.59294 24.1672 8.73851C24.2705 9.14979 24.4513 9.08601 25.4484 8.28549C25.5065 8.23858 25.7926 8.03809 26.0842 7.84018C26.3755 7.64198 26.6298 7.44121 26.6493 7.3943C26.6688 7.34711 26.7818 7.3085 26.9002 7.3085C27.0822 7.3085 27.1042 7.2636 27.0427 7.01735C27.0027 6.85719 26.9429 6.55975 26.91 6.3564C26.8768 6.15305 26.7947 5.93855 26.7271 5.87963C26.5569 5.73149 26.3214 5.00275 26.4018 4.87291C26.4379 4.81428 26.4267 4.76651 26.3766 4.76651C26.3266 4.76651 26.2215 4.58948 26.1434 4.37298C26.0164 4.02205 25.7869 3.68743 25.6942 3.7186C25.6756 3.72489 25.3025 3.79525 24.8656 3.87533ZM32.0187 4.29518C31.6107 4.3724 31.0771 4.43847 30.8327 4.44219C30.3254 4.44962 30.2144 4.56803 30.2565 5.05623C30.2728 5.24643 30.2425 5.40201 30.1887 5.40201C30.1349 5.40201 30.102 5.58076 30.1157 5.79927C30.14 6.1828 30.1538 6.19595 30.5234 6.18423C30.7337 6.17736 30.906 6.21311 30.906 6.26345C30.906 6.31407 30.9775 6.35526 31.0648 6.35526C31.1523 6.35526 31.2119 6.29577 31.1973 6.22284C31.1621 6.04666 32.1506 5.99604 33.0994 6.1256C33.496 6.17994 33.8342 6.21197 33.8514 6.19681C33.906 6.14876 33.6122 5.2959 33.5409 5.2959C33.5032 5.2959 33.4399 5.16777 33.4007 5.01133C33.322 4.69759 32.9469 4.12387 32.8328 4.14274C32.793 4.14932 32.4268 4.21768 32.0187 4.29518ZM12.5608 8.8369C12.525 8.87379 12.0243 8.97275 11.448 9.05741C10.3679 9.21585 8.86516 9.63113 8.8643 9.77155C8.86401 9.81503 8.80278 9.85078 8.72839 9.85078C8.52467 9.85078 7.39304 10.4591 6.83595 10.8675C6.56585 11.0657 6.30748 11.2279 6.26199 11.2279C6.15612 11.2279 6.04253 11.3288 4.8986 12.4382C4.37871 12.9422 3.92434 13.3077 3.88886 13.2502C3.84823 13.1847 3.7664 13.1824 3.66826 13.2445C3.53693 13.3274 3.54179 13.3434 3.69744 13.3449C3.94952 13.3472 3.9355 13.3966 3.5395 13.9089C3.35094 14.1531 3.18127 14.3753 3.16296 14.4028C3.14465 14.4302 3.09257 14.3925 3.04708 14.319C2.99672 14.2378 2.96439 14.315 2.96439 14.5169C2.96439 14.6991 2.91804 14.8796 2.8611 14.9182C2.80444 14.9568 2.67712 15.1061 2.57869 15.2502C2.43963 15.4533 2.39929 15.471 2.39929 15.3297C2.39929 15.2293 2.35294 15.1473 2.296 15.1473C2.23649 15.1473 2.22103 15.2894 2.25966 15.4816C2.31145 15.7413 2.29543 15.7965 2.18756 15.7298C2.10086 15.6764 2.07425 15.6858 2.11688 15.7544C2.15437 15.8151 1.97096 16.2953 1.70944 16.8215C1.44764 17.348 1.23362 17.83 1.23362 17.8929C1.23362 17.9558 1.18583 18.0073 1.12775 18.0073C1.06938 18.0073 1.02159 18.1168 1.02159 18.2509C1.02159 18.3848 0.980679 18.5398 0.930321 18.595C0.400416 19.179 -0.189861 23.7785 0.0584965 25.3904C0.319157 27.0844 0.940337 29.3415 1.14606 29.3415C1.19413 29.3415 1.23362 29.4102 1.23362 29.494C1.23362 29.5778 1.37296 29.9459 1.5432 30.312C1.71345 30.678 1.82732 31.0187 1.79614 31.069C1.76524 31.1193 1.88283 31.3112 2.05766 31.4957C2.23248 31.6799 2.44936 31.9771 2.53949 32.1561C2.62962 32.3351 2.77898 32.5445 2.87168 32.6214C2.97555 32.7075 3.01618 32.8462 2.97755 32.9844C2.93377 33.1417 2.94465 33.1657 3.01389 33.0656C3.13435 32.892 3.56525 33.4394 3.48571 33.665C3.45824 33.7431 3.53492 33.8301 3.65996 33.8627C3.78242 33.8947 3.88285 33.9548 3.88285 33.9962C3.88285 34.0798 4.83222 35.1688 5.28716 35.607C5.57271 35.8824 5.68201 36.0912 5.47257 35.9619C5.4142 35.9259 5.36641 35.9439 5.36641 36.0023C5.36641 36.1638 5.55469 36.2448 5.6019 36.1035C5.62536 36.0331 5.85683 36.1833 6.13295 36.4478C6.49489 36.7945 6.59876 36.9592 6.53123 37.0796C6.47916 37.1726 6.48173 37.3087 6.53753 37.3968C6.61077 37.5123 6.63538 37.478 6.63653 37.2595C6.63738 37.0994 6.66199 36.9681 6.69118 36.9681C6.82594 36.9681 7.16843 37.4117 7.10835 37.5086C7.07115 37.5687 7.1052 37.6073 7.18388 37.5941C7.42766 37.5535 7.68746 37.7197 7.62681 37.8773C7.59533 37.9599 7.63396 38.0346 7.71322 38.0435C7.79219 38.0523 7.90921 38.0652 7.97331 38.0718C8.10263 38.0849 8.71666 38.5371 9.14614 38.9346C9.29921 39.0765 9.47031 39.1926 9.52611 39.1926C9.58219 39.1926 9.80165 39.3236 10.014 39.4838C10.2265 39.6442 10.5075 39.8347 10.6386 39.9076C10.7699 39.9805 10.9845 40.0995 11.1155 40.1725C11.2466 40.2454 11.4254 40.3581 11.513 40.4233C11.646 40.5222 12.1919 40.8208 13.4841 41.5015C13.5948 41.5599 13.9239 41.7197 14.2151 41.8564C14.5067 41.9934 14.7691 42.1293 14.798 42.1585C14.8272 42.1876 15.0658 42.2909 15.3279 42.3875C15.5903 42.4845 16.3282 42.7822 16.9677 43.0496C17.6072 43.3168 18.1831 43.5356 18.2475 43.5356C18.3119 43.5356 18.6604 43.6557 19.022 43.8027C19.7105 44.0824 20.5631 44.3358 21.3683 44.5005C21.6307 44.5543 21.8613 44.645 21.8807 44.7024C21.8999 44.7596 22.0398 44.8068 22.1909 44.8068C22.3423 44.8068 22.6126 44.8523 22.7915 44.9078C23.2086 45.0374 25.3323 45.4423 25.5944 45.4423C25.8393 45.4423 25.9672 45.1194 26.14 44.0652C26.2118 43.6282 26.31 43.1652 26.3586 43.0362C26.4736 42.731 26.4516 42.721 25.1649 42.4836C24.1131 42.2897 23.2158 42.0847 22.4281 41.8584C22.2241 41.8001 21.604 41.6236 21.0504 41.4663C20.4967 41.3093 19.9007 41.1206 19.7259 41.0471C19.5511 40.9733 19.3365 40.8892 19.2489 40.8597C19.1248 40.818 19.1362 40.7899 19.3019 40.7322C19.8856 40.528 19.9545 40.4785 19.6667 40.4708C19.5173 40.467 19.3039 40.5305 19.1923 40.6123C18.9608 40.7814 18.5262 40.6501 16.7585 39.8773C16.4672 39.7497 16.1096 39.6087 15.9639 39.5636C15.818 39.5187 15.675 39.4526 15.6458 39.4166C15.5571 39.3073 15.1262 39.0868 15.0017 39.0868C14.9373 39.0868 14.7634 38.9913 14.6151 38.8749C14.4669 38.7582 14.2772 38.6629 14.194 38.6629C14.1104 38.6629 13.8858 38.5437 13.6947 38.3981C13.5038 38.2525 13.3136 38.1333 13.2721 38.1333C13.2309 38.1333 12.8352 37.895 12.3931 37.6036C11.9513 37.3124 11.569 37.0742 11.5442 37.0742C11.3078 37.0742 10.7842 36.4973 10.8972 36.3615C11.0054 36.2313 10.9839 36.2093 10.7662 36.2279C10.6231 36.2402 10.4534 36.2448 10.3894 36.2385C10.2019 36.2196 9.69378 35.7054 9.75873 35.6004C9.79106 35.5478 9.7284 35.5284 9.6191 35.557C9.48262 35.5924 9.34642 35.5049 9.18362 35.2761C9.05314 35.0931 8.92353 34.9664 8.8952 34.9944C8.78962 35.1002 6.56643 32.8983 6.60992 32.7312C6.62336 32.6792 6.49203 32.5356 6.31835 32.4118C6.14468 32.2882 6.00247 32.1404 6.00247 32.0837C6.00247 32.0268 5.8823 31.8512 5.73523 31.6936C5.52493 31.4677 5.50232 31.3996 5.62936 31.3727C5.88373 31.3187 5.81677 31.1251 5.5564 31.162C5.40704 31.1831 5.28258 31.1188 5.21219 30.9832C5.15125 30.8668 4.94667 30.5482 4.75725 30.2756C4.56784 30.0031 4.41276 29.7091 4.41276 29.6224C4.41276 29.5357 4.37699 29.4491 4.33322 29.4296C4.11547 29.333 3.58242 27.9673 3.01732 26.0577C2.84107 25.4619 2.82333 21.8474 2.99615 21.735C3.05824 21.6947 3.13921 21.4711 3.17641 21.238C3.36268 20.0645 4.35038 17.6418 4.5335 17.9077C4.61104 18.0201 4.62048 17.9961 4.56984 17.8165C4.49716 17.5591 5.1956 16.3456 5.63137 15.9718C5.74811 15.8717 5.8019 15.7882 5.75097 15.7862C5.70004 15.7845 5.71549 15.7141 5.7853 15.6303C5.85483 15.5462 5.97643 15.5025 6.0554 15.5325C6.15927 15.5725 6.18187 15.5225 6.13695 15.3509C6.09403 15.1876 6.11292 15.1375 6.19761 15.1899C6.26514 15.2316 6.32036 15.2156 6.32036 15.1547C6.32036 15.0186 6.65426 14.6176 6.76786 14.6176C6.81307 14.6176 6.85026 14.6919 6.85026 14.7826C6.85026 14.8735 6.90005 14.917 6.96128 14.8793C7.03653 14.8327 7.03052 14.7603 6.94239 14.6542C6.83624 14.5263 6.86199 14.4554 7.08231 14.2664C7.75041 13.6935 8.06258 13.4524 8.13583 13.4524C8.17932 13.4524 8.37131 13.3094 8.56272 13.1347C8.75414 12.9599 8.97646 12.8169 9.05629 12.8169C9.13641 12.8169 9.3284 12.73 9.48319 12.6239C10.646 11.8265 13.7648 11.4678 15.6069 11.92C16.8498 12.2252 17.4137 12.4414 17.3631 12.5933C17.3302 12.6919 17.3803 12.7128 17.5342 12.6639C17.6541 12.6261 17.8386 12.6447 17.9442 12.7059C18.0498 12.7669 18.2776 12.8672 18.4507 12.9287C18.703 13.0188 18.7342 13.0612 18.6095 13.1438C18.4987 13.2173 18.5376 13.2276 18.7457 13.1793C18.9062 13.1421 19.0369 13.1567 19.0369 13.2119C19.0369 13.2674 19.2272 13.4035 19.4595 13.5148C19.9007 13.7261 20.0395 13.9412 19.6727 13.8454C19.5562 13.8151 19.461 13.8388 19.461 13.8983C19.461 13.9581 19.5837 13.9832 19.7336 13.9546C19.9291 13.9172 20.1468 14.0032 20.5019 14.2578C20.7746 14.4531 21.1282 14.6974 21.2882 14.8006C21.4481 14.9039 21.5794 15.0263 21.5797 15.0729C21.5806 15.187 22.136 15.6692 22.2716 15.6735C22.4267 15.6784 24.1237 13.9515 24.1237 13.7887C24.1237 13.6269 23.5786 12.9227 23.4533 12.9227C23.4049 12.9227 23.2249 12.782 23.053 12.6101C22.6805 12.238 21.1743 11.1627 20.5749 10.8409C19.7188 10.3813 18.9751 10.0375 18.6132 9.93372C18.4092 9.87509 18.2183 9.79615 18.1891 9.75783C17.8778 9.34999 12.8606 8.52916 12.5608 8.8369ZM30.7998 8.95588C30.5377 9.03081 30.1953 9.0963 30.0387 9.10088C29.6957 9.11118 29.7114 9.06227 29.405 11.0571L29.1623 12.6342L28.9229 12.1165C28.791 11.8316 28.6822 11.527 28.6811 11.4398C28.6799 11.3523 28.5844 11.1378 28.4685 10.963C28.3526 10.7883 28.2576 10.544 28.2573 10.4199C28.257 10.2961 28.1881 10.1376 28.1043 10.0681C27.9509 9.94087 27.9452 9.94402 26.469 10.933C26.2994 11.0466 26.1732 11.0746 26.1317 11.0074C26.0911 10.9416 26.0121 10.9645 25.9274 11.0666C25.8104 11.2076 25.8158 11.2227 25.9632 11.1661C26.2547 11.0543 26.1566 11.2676 25.8132 11.4927C25.4582 11.7252 25.437 12.45 25.7752 12.788C25.8576 12.8704 25.9251 12.9779 25.9251 13.0268C25.9251 13.076 26.2055 13.7081 26.5483 14.432C26.8911 15.1555 27.2075 15.8628 27.2516 16.0035C27.2954 16.1443 27.3609 16.2833 27.3967 16.3124C27.4324 16.3416 27.5763 16.5927 27.716 16.8707C27.8942 17.2245 28.0213 17.3612 28.14 17.3269C28.2333 17.3 28.548 17.2491 28.8396 17.2142C29.1309 17.1793 29.5363 17.1252 29.7403 17.0946C30.0914 17.0414 30.1 17.0472 29.8991 17.2019C29.7171 17.342 29.7123 17.3655 29.8656 17.3683C29.9635 17.3701 30.0742 17.2763 30.1111 17.1599C30.1612 17.0023 30.2714 16.9479 30.542 16.9479C30.8759 16.9479 30.906 16.9219 30.906 16.6287C30.906 16.4531 30.9498 16.2269 31.0036 16.1257C31.0574 16.0244 31.1575 15.5245 31.2265 15.0148C31.2954 14.5052 31.3838 14.0879 31.423 14.0879C31.4622 14.0879 31.4988 13.8854 31.5043 13.6377C31.5223 12.8329 31.789 11.2845 31.9349 11.1381C32.0247 11.048 32.0551 10.8718 32.017 10.6613C31.9838 10.4777 31.9984 10.031 32.0491 9.66859C32.1787 8.74595 31.9629 8.62297 30.7998 8.95588ZM32.3658 8.85063C32.3009 8.91555 32.5009 9.66059 32.6062 9.74496C32.6425 9.77413 32.8024 10.0839 32.9615 10.4334C33.1209 10.7831 33.4147 11.3895 33.615 11.7813C33.8153 12.1728 33.979 12.5589 33.979 12.6387C33.979 12.7188 34.0771 12.8973 34.1967 13.0354C34.3467 13.2082 34.3953 13.3697 34.3527 13.5548C34.3075 13.7507 34.3183 13.781 34.3936 13.6678C34.482 13.5351 34.7209 13.8791 34.7209 14.1391C34.7209 14.1597 34.9295 14.5289 35.1844 14.9602C35.4394 15.3912 35.6817 15.85 35.7229 15.9795C35.7718 16.1334 35.8591 16.198 35.9747 16.1657C36.4039 16.0453 37.1576 15.9664 37.7847 15.9767C38.6574 15.9904 38.8054 15.8388 38.9072 14.8252C38.9481 14.4197 39.0251 14.0879 39.0786 14.0879C39.1321 14.0879 39.1453 13.9669 39.1084 13.8188C39.0712 13.6709 39.0912 13.3492 39.153 13.1038C39.3241 12.4237 39.3951 11.8983 39.2949 12.0536C39.226 12.1605 39.1507 12.1437 38.9507 11.9761C38.731 11.7922 38.7172 11.7455 38.854 11.6469C38.9842 11.5525 38.9747 11.5425 38.8008 11.5905C38.6574 11.63 38.4792 11.5465 38.2503 11.3326C38.064 11.1584 37.8563 11.016 37.7885 11.016C37.7209 11.016 37.6877 10.9565 37.7152 10.8835C37.7424 10.8109 37.7227 10.6559 37.6714 10.5395C37.5856 10.345 37.5816 10.3473 37.6231 10.5658C37.6789 10.8601 37.5473 10.8715 37.2892 10.595C36.8588 10.1328 36.5813 10.26 36.5224 10.9459L36.4694 11.5645L36.072 10.7588C35.8534 10.3158 35.6746 9.88824 35.6746 9.80845C35.6746 9.62827 34.3959 9.14378 33.6648 9.04682C33.3687 9.00764 33.1009 8.93414 33.0697 8.88352C33.007 8.78227 32.4599 8.75653 32.3658 8.85063ZM17.9774 13.0285C17.9774 13.0869 18.0489 13.1347 18.1362 13.1347C18.2238 13.1347 18.2953 13.0869 18.2953 13.0285C18.2953 12.9705 18.2238 12.9227 18.1362 12.9227C18.0489 12.9227 17.9774 12.9705 17.9774 13.0285ZM60.4193 13.8251C59.4791 13.9438 57.166 14.2872 55.0147 14.6273C54.6066 14.6917 54.0476 14.7426 53.772 14.74C53.4965 14.7377 53.2433 14.7806 53.2095 14.8355C53.1754 14.8904 53.0495 14.9353 52.9297 14.9353C52.7468 14.9353 52.7219 14.9825 52.7754 15.2268C52.8103 15.3869 52.8893 15.8994 52.9508 16.3653C53.1577 17.9321 53.2538 18.5861 53.3795 19.2783C53.4481 19.6569 53.54 20.2767 53.5835 20.6554C53.6885 21.5711 53.8707 22.8115 54.1783 24.7057C54.3177 25.5643 54.4318 26.4724 54.4318 26.7235C54.4318 26.9749 54.4767 27.2257 54.5317 27.2812C54.5863 27.3364 54.647 27.6201 54.6662 27.9115L54.7011 28.4409L55.5466 28.4109C56.0118 28.3943 56.6544 28.3282 56.9752 28.2642C57.2957 28.2001 57.7248 28.1318 57.9288 28.1126C58.1329 28.0934 59.015 27.9619 59.8894 27.82C60.7638 27.6784 62.1229 27.4785 62.9097 27.3761C64.6182 27.1536 64.528 27.2134 64.3403 26.4269C64.2571 26.0783 64.1864 25.5783 64.1836 25.3161C64.1807 25.0541 64.1518 24.7401 64.1189 24.6185L64.0597 24.3974L62.9283 24.5913C62.306 24.698 61.4153 24.831 60.9492 24.8868C60.4828 24.9425 59.7987 25.0381 59.429 25.0993C59.0593 25.1602 58.5586 25.2297 58.3163 25.2537C58.0742 25.2777 57.8107 25.3135 57.7311 25.3332C57.5758 25.3718 57.5489 25.2886 57.4007 24.3099C57.3477 23.9604 57.2596 23.4136 57.2049 23.0953C57.1503 22.7767 57.126 22.4626 57.1512 22.3974C57.1932 22.2876 59.2396 21.9478 61.4553 21.6824C62.417 21.5671 62.7524 21.3032 62.3933 20.9442C62.3275 20.8787 62.2717 20.6079 62.2691 20.3431C62.2642 19.8408 62.1272 18.9906 62.0362 18.8999C62.0076 18.871 61.7034 18.8973 61.3606 18.9582C61.0176 19.0194 60.1887 19.1378 59.5186 19.2216C58.8482 19.3054 57.9506 19.443 57.524 19.5271C56.9526 19.6401 56.7386 19.6484 56.7114 19.5588C56.6914 19.4919 56.6241 19.032 56.5623 18.537C56.5005 18.0416 56.4192 17.5294 56.382 17.3981C56.324 17.1925 56.3563 17.1579 56.6184 17.1461C57.0167 17.1284 57.2645 17.0941 58.4058 16.8993C58.9303 16.8101 59.9715 16.6654 60.7194 16.5784C61.4674 16.4912 62.1297 16.3888 62.1913 16.3508C62.2923 16.2884 62.2514 15.0509 62.12 14.194C62.0977 14.0481 62.0754 13.8694 62.0705 13.7968C62.0602 13.6409 61.8476 13.6446 60.4193 13.8251ZM45.046 16.3041C45.0858 16.6202 45.1725 16.9777 45.2383 17.0986C45.3044 17.2196 45.4097 17.6255 45.4721 18.0007L45.5857 18.6825L46.1076 18.8155C47.2961 19.1187 47.9502 20.5667 47.2257 21.2909C47.109 21.4076 47.0137 21.5431 47.0137 21.5926C47.0137 21.6684 46.2386 22.0745 46.0635 22.0905C45.6209 22.1314 45.5551 22.2536 45.4272 23.2709C45.3565 23.832 45.2478 24.3725 45.1857 24.4718C45.0266 24.7263 45.1536 24.9937 45.4026 24.9288C45.5453 24.8914 45.7605 25.0295 46.1244 25.3916C46.9777 26.2407 47.5436 26.8716 47.5436 26.9737C47.5436 27.0266 47.6429 27.1548 47.7645 27.2589C47.8858 27.3627 47.9597 27.514 47.9288 27.5946C47.8918 27.6907 47.9256 27.7213 48.0258 27.6827C48.1104 27.6504 48.1803 27.6647 48.1811 27.7148C48.182 27.7645 48.3133 27.9573 48.4727 28.1429C48.786 28.5081 49.2507 29.0953 49.3602 29.2646C49.4049 29.3338 49.6581 29.3301 50.1019 29.2535C51.0464 29.0902 52.2026 28.92 52.5691 28.89C52.9938 28.8553 53.0086 28.7052 52.6347 28.2347C52.459 28.0139 52.3414 27.7911 52.3731 27.7399C52.4049 27.6885 52.3565 27.6467 52.2656 27.6467C52.1749 27.6467 52.1005 27.6021 52.1005 27.5477C52.1005 27.4934 51.8415 27.1262 51.5248 26.7315C51.2083 26.3368 50.968 25.9836 50.9909 25.9467C51.0138 25.9098 50.8927 25.7762 50.7222 25.6504C50.5517 25.5243 50.4263 25.3615 50.4441 25.2892C50.4615 25.2165 50.4575 25.1888 50.4346 25.2274C50.3883 25.3061 48.9213 23.8706 48.9213 23.7465C48.9213 23.7027 49.0618 23.584 49.2338 23.4825C49.4057 23.381 49.6913 23.153 49.8684 22.976C50.0567 22.7881 50.2427 22.6863 50.3156 22.7315C50.4006 22.7838 50.4189 22.7515 50.3726 22.6305C50.3342 22.5307 50.4075 22.2556 50.5394 22.0042C50.9502 21.2208 50.8985 19.2093 50.4487 18.4709C50.3734 18.3473 50.3368 18.1328 50.3674 17.9941C50.4086 17.8088 50.3957 17.7813 50.3188 17.8903C50.2358 18.0078 50.1809 17.9735 50.0515 17.7236C49.9623 17.5508 49.8143 17.3472 49.723 17.2717C49.4738 17.0649 49.523 16.9167 49.8221 16.974C50.1517 17.0369 50.166 16.9708 49.8484 16.8521C49.6956 16.7946 49.5828 16.8055 49.5339 16.8819C49.4784 16.9685 49.3969 16.9634 49.2346 16.8627C48.2172 16.2321 47.3851 15.9975 46.1608 15.9958C45.5828 15.995 45.2037 15.9466 45.1141 15.8623C44.9983 15.7527 44.9865 15.8297 45.046 16.3041ZM41.662 16.4797C41.4872 16.5707 41.1296 16.6862 40.8675 16.736C39.8969 16.9208 39.775 17.0077 39.8614 17.453C39.9885 18.1074 40.1888 19.4427 40.5404 21.9796C40.6051 22.4455 40.729 23.3035 40.816 23.8861C40.9029 24.4686 41.0228 25.3029 41.0823 25.7399C41.216 26.7183 41.2437 26.7993 41.4469 26.7993C41.5481 26.7993 41.6091 26.702 41.6091 26.5407C41.6091 26.3983 41.6569 26.2524 41.7152 26.2167C41.7733 26.1807 41.8211 26.0691 41.8211 25.969C41.8211 25.8689 41.921 25.7013 42.0434 25.5966C42.1845 25.4759 42.2454 25.3295 42.2102 25.1948C42.1799 25.0784 42.2466 24.7126 42.3585 24.3817C42.4703 24.0508 42.6188 23.3155 42.6878 22.7475C42.757 22.1795 42.8449 21.7147 42.8826 21.7147C42.9204 21.7147 42.9516 21.1427 42.9516 20.4434C42.9516 19.7445 42.9178 19.1724 42.8769 19.1724C42.8357 19.1724 42.7696 18.9222 42.7301 18.6165C42.6537 18.029 42.4929 17.3543 42.3447 17.0008C42.2958 16.8844 42.2414 16.6977 42.224 16.5861C42.1805 16.3101 42.0386 16.2833 41.662 16.4797ZM32.1775 17.9012C31.9154 17.9438 31.4147 18.0127 31.0648 18.0545C29.8284 18.202 29.783 18.2489 29.419 19.755C29.2922 20.2793 29.1472 20.8038 29.0962 20.9202C28.9294 21.3037 28.3626 23.6381 28.3626 23.9418C28.3626 24.1054 28.3237 24.2553 28.2762 24.2744C28.229 24.2939 28.0364 25.0249 27.8487 25.8987C27.6608 26.7727 27.4642 27.6307 27.4115 27.8054C27.3145 28.1266 27.0041 29.5947 26.9297 30.0829C26.7901 30.9998 26.6373 31.7631 26.5437 32.0082C26.3949 32.3995 26.5168 32.7621 26.7543 32.6352C26.853 32.5822 27.5486 32.4638 28.3005 32.3717C29.6319 32.2084 30.0611 32.0528 30.0565 31.7348C30.0556 31.671 30.0087 31.6902 29.952 31.7777C29.8133 31.9928 29.8201 31.8667 30.003 30.8774C30.3684 28.8991 30.0794 29.1199 32.7841 28.7532C33.4122 28.668 34.2517 28.545 34.6497 28.4804C35.5069 28.3405 35.3936 28.2453 36.1613 29.7497C36.88 31.1585 36.7733 31.0927 38.0846 30.938C39.1264 30.8153 39.8185 30.4638 39.6274 30.1547C39.5868 30.0889 39.6323 30.0743 39.7441 30.1172C39.8906 30.1732 39.9141 30.1449 39.8603 29.9762C39.7693 29.6893 39.9009 29.3138 40.0697 29.3787C40.1788 29.4205 40.183 29.3676 40.0901 29.1216C39.9444 28.7358 39.8142 28.7201 39.8406 29.0916C39.8517 29.2455 39.8011 29.3925 39.7281 29.4182C39.6506 29.4457 39.5956 29.377 39.5956 29.2532C39.5956 29.1365 39.5541 29.0255 39.5038 29.0061C39.4531 28.9866 39.3785 28.8636 39.3378 28.7329C39.2763 28.535 39.2955 28.5076 39.4529 28.5679C39.6205 28.6323 39.6242 28.6214 39.4863 28.473C39.379 28.3574 39.3078 28.342 39.2571 28.4232C39.2165 28.4878 39.1687 28.5184 39.151 28.491C38.9187 28.1312 38.7476 27.7328 38.7936 27.6584C38.8254 27.6069 38.7805 27.5057 38.6938 27.4336C38.6071 27.3618 38.5352 27.1777 38.5344 27.0246C38.533 26.8121 38.5095 26.783 38.4345 26.9014C38.3435 27.0452 38.1121 26.6769 38.1121 26.3886C38.1121 26.3451 38.0285 26.2155 37.9267 26.1009C37.8245 25.9859 37.579 25.5838 37.381 25.2068C37.1827 24.8301 36.9521 24.4418 36.868 24.3439C36.7836 24.2458 36.7441 24.0754 36.7796 23.9633C36.8151 23.8517 36.7736 23.598 36.6875 23.3996C36.5533 23.0904 36.4514 23.1284 36.5186 23.4625C36.5656 23.6944 36.2777 23.2743 35.9744 22.668C35.9017 22.5224 35.7567 22.2896 35.6525 22.1506C35.5481 22.0116 35.4628 21.8248 35.4628 21.7359C35.4628 21.6467 35.3933 21.4979 35.3086 21.4058C34.7993 20.851 34.7209 20.752 34.7209 20.6637C34.7209 20.6096 34.6042 20.4269 34.4614 20.2573C34.2829 20.0453 34.2196 19.8692 34.2585 19.6933C34.2989 19.5119 34.2857 19.479 34.2142 19.58C34.1381 19.6873 34.0125 19.5557 33.708 19.0503C33.4854 18.6805 33.2717 18.3542 33.2331 18.325C33.1947 18.2959 33.1066 18.1649 33.0376 18.0336C32.9684 17.9026 32.8539 17.8016 32.7833 17.8096C32.7123 17.8174 32.4399 17.8586 32.1775 17.9012ZM32.2225 22.1403C32.3349 22.3431 32.4539 22.533 32.4874 22.5622C32.5212 22.5913 32.7629 23.0441 33.0253 23.5683C33.2877 24.0928 33.5266 24.5456 33.5567 24.5747C33.5867 24.6039 33.7298 24.8659 33.8745 25.1573C34.0196 25.4485 34.1738 25.7027 34.2176 25.7222C34.5487 25.8692 34.2139 25.9553 32.7074 26.1097C32.5034 26.1306 32.0505 26.1987 31.7008 26.261C30.8828 26.4066 30.7998 26.4043 30.7998 26.235C30.7998 26.1409 30.9137 26.1043 31.1443 26.1243L31.4888 26.1543L31.1709 26.0763C30.8233 25.9907 30.7921 25.7837 31.0087 24.9983C31.1864 24.3551 31.5289 22.845 31.6033 22.3768C31.6425 22.1291 31.7197 21.9267 31.7744 21.9267C31.829 21.9267 31.8405 21.8214 31.7999 21.6933C31.6983 21.3732 31.9395 21.6286 32.2225 22.1403ZM75.25 26.6846C75.1948 26.7381 74.5296 26.8588 73.7719 26.9526C73.014 27.0464 72.1556 27.1702 71.8643 27.2274C71.2245 27.3527 70.1899 27.4551 69.7184 27.4393C69.529 27.4333 69.3739 27.4774 69.3739 27.5374C69.3739 27.5975 69.2102 27.6467 69.0099 27.6467C68.8096 27.6467 68.5178 27.6953 68.3613 27.7548C68.159 27.8317 68.0342 27.828 67.9304 27.7419C67.8237 27.6533 67.7844 27.6527 67.7844 27.7396C67.7844 27.8049 67.6889 27.8583 67.5724 27.8583C67.3204 27.8583 67.2949 28.2436 67.4749 29.3415C67.7424 30.9738 67.9953 32.8093 67.9959 33.1219C67.9962 33.3078 68.0377 33.4857 68.0883 33.5169C68.139 33.5484 68.2128 33.9682 68.252 34.4501C68.2915 34.932 68.3893 35.7077 68.4694 36.1736C68.7258 37.6654 68.844 38.55 68.844 38.9764C68.844 39.2049 68.8875 39.4188 68.9407 39.4514C68.9936 39.4843 69.0703 39.9096 69.1109 40.3967C69.2119 41.6096 69.175 41.5773 70.2348 41.378C70.723 41.2861 71.8617 41.1111 72.765 40.989C73.6683 40.8669 74.8844 40.6958 75.4672 40.6092C77.3851 40.324 78.6435 40.1527 78.8444 40.1493C79.0063 40.1464 79.0292 40.0932 78.9708 39.8547C78.8941 39.541 78.7225 38.5116 78.6515 37.9408C78.5906 37.4509 78.4229 37.2735 78.135 37.3948C78.0083 37.4483 77.5471 37.5369 77.1098 37.5921C75.6666 37.7738 73.9908 38.0277 73.5319 38.1344C73.2832 38.1922 72.8526 38.2394 72.575 38.2394H72.07L71.9407 37.4174C71.8695 36.9655 71.8114 36.4167 71.8114 36.1979C71.8114 35.9791 71.7536 35.7077 71.6829 35.5944C71.4946 35.293 71.6723 35.2495 75.1493 34.7476C76.4649 34.5574 77.216 34.3921 77.216 34.2925C77.216 34.2425 77.1728 34.2282 77.1204 34.2605C77.0054 34.3314 76.8129 33.5689 76.7073 32.6251L76.6303 31.9367L75.943 31.969C75.5648 31.9868 74.85 32.0674 74.3548 32.1481C73.8592 32.2287 73.0082 32.3469 72.4635 32.4104C71.9187 32.4741 71.4211 32.5365 71.3579 32.5491C71.1424 32.5922 70.8403 30.2776 71.0446 30.1512C71.1255 30.1012 72.1473 29.9413 73.5599 29.7571C73.9679 29.7039 74.6354 29.6081 75.0435 29.5443C75.4515 29.4805 76.0237 29.3967 76.315 29.3584C76.891 29.2823 77.0418 29.0378 76.8089 28.5576C76.7493 28.4352 76.6804 27.9959 76.6558 27.5815C76.6309 27.1671 76.5768 26.7738 76.5359 26.7078C76.4472 26.5642 75.3942 26.5453 75.25 26.6846ZM44.331 27.1654C44.2329 27.2635 44.1525 27.3942 44.1525 27.4557C44.1525 27.5952 43.6025 28.8459 43.5093 28.9177C43.4718 28.9469 43.3367 29.2074 43.2097 29.4966C43.0826 29.786 42.9207 30.0637 42.8503 30.114C42.7055 30.2173 44.5711 30.1155 45.2023 29.9859C45.2257 29.9811 45.1716 29.8935 45.0821 29.7917C44.9819 29.6776 44.8681 29.178 44.7865 28.4941C44.6151 27.057 44.5702 26.9263 44.331 27.1654ZM64.817 28.2839C63.9701 28.4246 62.7558 28.5934 62.5652 28.5965C62.4442 28.5988 62.3798 28.6829 62.3804 28.8382C62.3807 28.9695 62.312 29.2912 62.2282 29.5532C62.1441 29.8155 62.0193 30.4352 61.9503 30.9303C61.8814 31.4256 61.7635 32.1166 61.6883 32.4661C61.613 32.8159 61.5186 33.3879 61.4779 33.7374C61.4376 34.0869 61.3666 34.3966 61.3203 34.4258C61.2739 34.455 61.1601 34.9077 61.0674 35.4323C60.6502 37.7923 60.5426 38.2966 60.4425 38.3609C60.3835 38.3987 60.3641 38.5045 60.3993 38.596C60.5191 38.9086 60.2851 38.8726 60.1549 38.5583C60.0834 38.3858 59.9329 38.1387 59.8207 38.0094C59.6859 37.8541 59.6359 37.6822 59.6734 37.5035C59.736 37.204 59.6147 36.9395 59.4373 36.989C59.3744 37.0067 59.193 36.7828 59.0342 36.4916C58.4113 35.3479 57.4845 33.5832 57.0035 32.6251C56.7257 32.0717 56.4625 31.603 56.4187 31.5835C56.3752 31.5641 56.3394 31.4974 56.3394 31.4354C56.3394 31.2887 55.6859 29.9639 55.5325 29.7994C55.4064 29.6642 52.8244 29.8993 52.3388 30.0903C52.063 30.199 52.0324 30.4684 52.2593 30.7922C52.3814 30.9666 52.3877 31.031 52.2856 31.0722C52.2069 31.1039 52.2284 31.1288 52.3388 31.1339C52.4441 31.1385 52.5242 31.2252 52.5242 31.3341C52.5242 31.4397 52.6178 31.6261 52.7319 31.7488C52.8461 31.8712 52.9706 32.0952 53.0086 32.2465C53.0467 32.3975 53.1188 32.5468 53.1691 32.5777C53.2195 32.6088 53.4281 32.9778 53.6327 33.3976C53.837 33.8175 54.1451 34.3995 54.3171 34.6907C54.4893 34.9821 54.7792 35.5063 54.9612 35.8558C55.1431 36.2056 55.473 36.7776 55.6942 37.1271C55.9157 37.4766 56.0748 37.8218 56.0479 37.8942C56.0212 37.9665 56.0782 38.0558 56.1743 38.0926C56.2705 38.1295 56.4619 38.3804 56.5998 38.6498C56.7377 38.9192 56.938 39.2349 57.0453 39.3516C57.1526 39.468 57.3577 39.8018 57.5014 40.0929C57.645 40.3844 57.847 40.7356 57.9503 40.8734C58.0536 41.0113 58.1123 41.1657 58.0808 41.2164C58.0496 41.2673 58.0859 41.2856 58.1618 41.2573C58.245 41.2264 58.3804 41.3745 58.5022 41.6294C58.6135 41.8622 58.7397 42.0526 58.7824 42.0526C58.8247 42.0526 58.8911 42.1776 58.9294 42.3303C59.0742 42.9069 59.2095 42.9493 60.4562 42.8068C62.3798 42.5869 62.3755 42.588 62.4425 42.2771C62.4754 42.1244 62.5386 41.9042 62.5833 41.7878C62.7958 41.2332 63.0122 40.4716 63.0794 40.04C63.1203 39.7778 63.1827 39.5395 63.2179 39.5104C63.2531 39.4812 63.3678 39.0999 63.4728 38.6629C63.7881 37.3502 64.0044 36.6503 64.0954 36.6503C64.1426 36.6503 64.1813 36.475 64.1813 36.2605C64.1813 36.0463 64.3023 35.343 64.4499 34.6981C64.9753 32.4072 65.0296 32.1458 65.0293 31.9164C65.0291 31.7889 65.07 31.659 65.12 31.6281C65.1701 31.5972 65.2431 31.2601 65.282 30.8791C65.3212 30.4981 65.3959 30.074 65.4482 29.9361C65.5006 29.7986 65.577 29.3464 65.6179 28.9311C65.7015 28.0829 65.7567 28.1275 64.817 28.2839ZM44.0558 31.0373C42.9413 31.2706 41.7805 31.8152 41.6125 32.1833L41.4901 32.4515L41.2735 32.1412C41.1493 31.963 41.0895 31.921 41.133 32.0426C41.175 32.159 41.2314 32.3306 41.2586 32.4238C41.3055 32.586 40.3273 34.0157 40.1181 34.0903C40.064 34.1098 40.0197 34.175 40.0197 34.2353C40.0197 34.2957 39.8749 34.5182 39.6981 34.7298C39.0377 35.5195 39.0088 35.5818 38.8646 36.5171C38.7401 37.3242 38.882 39.6928 39.0769 40.0595C39.1292 40.1576 39.1719 40.3363 39.1719 40.4567C39.1719 40.5771 39.2194 40.6755 39.2777 40.6755C39.4002 40.6755 39.4228 41.0596 39.3044 41.126C39.2606 41.1506 39.2809 41.1574 39.3493 41.1411C39.4179 41.1251 39.561 41.3233 39.6672 41.5819C39.7736 41.8404 39.8964 42.0521 39.9401 42.0523C39.9839 42.0523 40.0197 42.1184 40.0197 42.1985C40.0197 42.2789 40.0932 42.4056 40.1833 42.4802C40.2735 42.5551 40.3227 42.6801 40.2926 42.7582C40.2626 42.8363 40.2786 42.9001 40.3278 42.9001C40.3773 42.9001 40.7192 43.1861 41.0881 43.5356C41.4566 43.8851 41.8111 44.1711 41.8758 44.1711C41.9401 44.1711 42.0855 44.2546 42.1985 44.3567C42.9224 45.0099 45.1356 45.3603 46.7488 45.0768C47.9482 44.866 47.97 44.8595 48.8864 44.4253C49.3044 44.2271 49.6819 44.0652 49.7253 44.0652C49.814 44.0652 49.9182 43.9729 50.6698 43.2252C51.7274 42.1733 52.1468 41.3697 52.4118 39.8882C52.6278 38.681 52.4736 36.1873 52.1451 35.5747C52.0624 35.4202 51.9935 35.2295 51.992 35.1511C51.972 33.9399 49.4203 31.4165 47.8881 31.0922C47.6987 31.0521 47.5436 30.9846 47.5436 30.942C47.5436 30.779 44.9525 30.8496 44.0558 31.0373ZM30.8874 33.2086C30.8579 33.238 30.5043 33.3098 30.1014 33.3676C27.7383 33.7082 27.9125 33.6473 28.039 34.0886C28.0982 34.2954 28.0977 34.4258 28.0373 34.4258C27.9829 34.4258 27.9457 34.6286 27.9546 34.876C27.9669 35.2252 27.9806 35.2566 28.0164 35.0164C28.096 34.479 28.2482 34.9429 28.1801 35.5163C28.142 35.8392 28.162 36.0623 28.2333 36.1064C28.3721 36.1922 28.7329 38.393 28.7332 39.156C28.7334 39.4563 28.7661 39.682 28.8061 39.6571C28.8462 39.6325 28.8937 39.766 28.912 39.9542C28.9432 40.2714 28.9758 40.298 29.3684 40.3226C29.6722 40.3415 29.7469 40.3203 29.6333 40.2468C29.4665 40.1387 29.9046 39.6805 30.0745 39.7852C30.1157 39.8107 30.2124 39.742 30.2894 39.6325C30.4113 39.4583 31.1077 38.9281 31.6322 38.61C31.728 38.5517 31.8416 38.4564 31.8845 38.3981C31.9918 38.2522 31.9864 37.2858 31.8783 37.2858C31.797 37.2858 31.7189 36.8096 31.4013 34.3729C31.2591 33.2844 31.1223 32.9738 30.8874 33.2086ZM47.1408 34.1009C47.4283 34.2797 47.703 34.4258 47.7514 34.4258C47.8624 34.4258 47.9711 34.7021 47.9285 34.876C47.9107 34.9489 47.9162 34.9726 47.9408 34.9292C48.0186 34.7899 48.1794 34.8437 48.1794 35.0084C48.1794 35.0959 48.2163 35.1674 48.2612 35.1674C48.469 35.1674 48.8612 36.1593 49.0924 37.2692C49.4841 39.1514 48.8129 41.2261 47.6564 41.7074C47.4486 41.7938 47.2486 41.9122 47.212 41.9706C46.9754 42.3469 44.2583 42.3049 44.2583 41.9248C44.2583 41.8785 44.194 41.8407 44.115 41.8407C43.5894 41.8407 42.5213 40.1407 42.2406 38.8568C41.9839 37.6831 42.3012 35.311 42.6832 35.5469C42.7708 35.601 42.7894 35.5527 42.7456 35.3851C42.652 35.0273 43.5447 34.1767 43.9313 34.2556C44.0821 34.2865 44.1459 34.2857 44.0729 34.2539C43.8701 34.1658 43.9147 34.0357 44.1791 33.945C45.2337 33.5827 46.406 33.6445 47.1408 34.1009ZM46.2718 34.1081C46.4792 34.2419 46.6958 34.2419 46.6958 34.1081C46.6958 34.0497 46.5648 34.0028 46.4043 34.0037C46.1774 34.0051 46.1482 34.028 46.2718 34.1081ZM31.9283 41.7612C31.6671 42.0212 30.8491 42.5823 30.7312 42.5823C30.6908 42.5823 30.5824 42.6501 30.4903 42.7327C30.3984 42.8157 30.2573 42.8989 30.1769 42.9181C30.0965 42.9372 29.8945 43.0737 29.7283 43.2212L29.4256 43.4895L29.6307 44.9161C29.7437 45.7006 29.8502 46.5094 29.8676 46.7133C29.9163 47.2865 30.5526 47.2756 34.3501 46.6358C35.2242 46.4885 36.2972 46.3307 36.7344 46.2852C37.1716 46.2394 37.6245 46.1754 37.7413 46.1422C37.8577 46.109 38.1681 46.0672 38.4308 46.0489C39.2168 45.9949 39.2065 46.0324 38.9292 44.1965C38.7504 43.0133 38.8497 43.1074 37.953 43.2736C37.545 43.3491 36.8297 43.4598 36.3636 43.5195C35.8972 43.5793 35.349 43.6557 35.1449 43.6897C33.4185 43.9763 33.3183 43.9843 33.2262 43.8387C33.159 43.7332 33.1341 43.7298 33.1329 43.827C33.1321 43.8996 33.0588 43.9594 32.9704 43.9594C32.8542 43.9594 32.8268 43.8899 32.872 43.7097C32.9103 43.5576 32.874 43.3994 32.779 43.3045C32.6863 43.2118 32.5921 42.8191 32.5469 42.3358C32.4631 41.4423 32.3524 41.3393 31.9283 41.7612ZM40.2314 43.1723C40.2314 43.253 40.517 43.5356 40.5985 43.5356C40.634 43.5356 40.6117 43.4403 40.5493 43.3236C40.4457 43.13 40.2314 43.0282 40.2314 43.1723Z" fill="#FEFEFE"/>
<path fill-rule="evenodd" clip-rule="evenodd" d="M58.1619 47.7539C57.3897 48.1715 57.1227 49.4645 57.6111 50.422C58.2735 51.7199 60.113 50.994 59.7333 49.5846C59.5359 48.8527 58.856 48.6105 58.2366 49.0515L57.9287 49.2706V49.0043C57.9287 48.6005 58.3505 48.1809 58.8355 48.1023C59.1588 48.0497 59.2535 47.9867 59.2535 47.8243C59.2535 47.5383 58.6343 47.4985 58.1619 47.7539ZM55.2303 48.5107C54.6411 49.1084 54.6812 49.6687 55.276 49.153C55.6864 48.7973 55.6669 48.7475 55.9001 50.7389C55.9668 51.3075 55.9771 51.3224 56.3258 51.3558L56.6835 51.3899L56.6134 50.8791C56.1576 47.5632 56.1602 47.5672 55.2303 48.5107ZM51.9327 48.5936C51.6597 48.6394 50.4986 50.9348 50.5839 51.2603C50.6328 51.4474 50.7058 51.4608 51.369 51.405L52.1003 51.3438V51.6273C52.1003 51.9533 52.3109 52.0748 52.6042 51.9181C52.7558 51.8372 52.795 51.7276 52.7596 51.4863C52.7241 51.244 52.7533 51.1628 52.8769 51.1628C52.9673 51.1628 53.0683 51.1193 53.1012 51.0664C53.2031 50.9014 53.0408 50.6331 52.8391 50.6331C52.6328 50.6331 52.5845 50.4784 52.4717 49.4534C52.3968 48.7738 52.2503 48.5401 51.9327 48.5936ZM53.4125 49.1968C53.3132 49.4556 53.4174 49.7285 53.6311 49.7694C53.9112 49.8234 54.1378 49.4988 53.9999 49.2414C53.8749 49.008 53.4963 48.9792 53.4125 49.1968ZM59.0681 49.6964C59.4106 50.4129 58.5573 50.9122 58.1931 50.2084C58.0726 49.9756 58.0575 49.8354 58.1362 49.6882C58.3568 49.2763 58.8695 49.2809 59.0681 49.6964ZM43.029 49.7225C42.9944 49.8123 43.0502 50.4472 43.1526 51.1333C43.255 51.8194 43.3669 52.5716 43.4013 52.8047C43.4356 53.0375 43.4994 53.2163 43.5429 53.2017C43.5867 53.1874 43.7229 53.1754 43.8456 53.1754C44.0613 53.1754 44.0665 53.1439 43.9947 52.2393C43.9154 51.2389 44.0207 50.9509 44.4648 50.9509C44.7747 50.9509 44.8908 51.1908 45.0245 52.1077C45.1463 52.9446 45.1595 52.9723 45.4199 52.942C45.7629 52.902 45.8061 52.6334 45.6325 51.619C45.4436 50.5153 44.8508 50.084 44.199 50.5768C43.8528 50.8385 43.7483 50.763 43.6565 50.1829C43.5646 49.6044 43.1821 49.3235 43.029 49.7225ZM51.9043 50.1034C51.9129 50.3365 51.9249 50.5868 51.9307 50.6597C51.9367 50.7344 51.7919 50.8064 51.597 50.8253C51.175 50.8659 51.1478 50.6892 51.484 50.0914C51.7782 49.5683 51.8843 49.5715 51.9043 50.1034ZM47.3801 50.0914C47.1195 50.2095 46.815 50.265 46.6019 50.2338L46.2519 50.1824L46.3217 50.9108C46.4591 52.3506 46.5755 52.7515 46.8559 52.7515C47.2159 52.7515 47.2411 52.6517 47.1069 51.7511C46.9692 50.8253 47.1197 50.4872 47.6419 50.5487C47.9338 50.5828 47.963 50.648 48.2019 51.7983C48.3349 52.4392 48.363 52.4844 48.6065 52.4501C48.9678 52.3992 48.9593 52.4455 48.8002 51.4099C48.595 50.0734 48.2102 49.7162 47.3801 50.0914ZM38.7743 50.5027C38.4996 50.5479 38.4584 50.9966 38.6347 52.0191C39.0181 54.2407 39.017 54.263 38.5191 54.4364C38.0839 54.5879 38.1448 54.9108 38.6175 54.9563C39.5497 55.0464 39.7022 54.481 39.3692 52.1689C39.1202 50.4398 39.1222 50.4455 38.7743 50.5027ZM40.6997 51.0721C39.9237 51.4485 39.9575 52.9489 40.7529 53.4182C41.7849 54.0277 42.8839 53.0967 42.5586 51.8884C42.3389 51.0736 41.4774 50.6949 40.6997 51.0721ZM53.7536 51.089C53.4737 51.2932 53.5762 51.6321 53.9298 51.673C54.2583 51.7108 54.428 51.4545 54.2554 51.1811C54.1098 50.9503 53.9767 50.9257 53.7536 51.089ZM35.2913 51.5864C35.198 51.8194 35.0793 52.0102 35.0272 52.0102C34.8498 52.0102 34.9322 52.3031 35.1234 52.3531C35.2696 52.3912 35.342 52.5819 35.4327 53.1685C35.6032 54.2696 36.1305 54.656 36.8124 54.1787C37.1325 53.9545 37.0078 53.7051 36.5754 53.7051C36.1803 53.7051 36.1465 53.6493 36.0444 52.8319L35.9709 52.2436L36.2996 52.1715C36.8095 52.0594 36.7835 51.5746 36.2719 51.6576C35.9545 51.7091 35.9076 51.6847 35.8458 51.4391C35.744 51.0335 35.485 51.1022 35.2913 51.5864ZM41.762 51.7159C41.9572 51.9945 41.9809 52.7613 41.7998 52.9423C41.3984 53.3436 40.8519 52.902 40.8407 52.1669C40.8304 51.474 41.3978 51.1962 41.762 51.7159ZM30.5084 52.0362C30.0289 52.5247 29.984 52.6354 30.1848 52.8362C30.2835 52.9346 30.3757 52.902 30.5977 52.6895L30.8833 52.4158L31.0031 53.1399C31.0692 53.538 31.1588 54.1023 31.2023 54.3935C31.3073 55.0953 31.9339 55.2406 31.8873 54.5525C31.6996 51.7808 31.3625 51.1662 30.5084 52.0362ZM33.1677 52.1612C32.3276 52.533 32.6432 53.3192 33.7671 53.6544C34.4103 53.8463 34.1889 54.2347 33.4361 54.2347C32.8801 54.2347 32.8627 54.2488 33.0289 54.5594C33.2518 54.9758 34.4996 54.7089 34.7339 54.195C34.9791 53.657 34.6727 53.2269 33.9362 53.0753C33.2515 52.9343 33.3016 52.5119 34.0046 52.4967C34.382 52.4884 34.4558 52.4521 34.4558 52.2751C34.4558 52.0054 33.6758 51.9364 33.1677 52.1612Z" fill="#FEFEFE"/>
</svg>
